<?xml version="1.0" encoding="utf-8" standalone="no"?>
<!DOCTYPE svg PUBLIC "-//W3C//DTD SVG 1.1//EN"
  "http://www.w3.org/Graphics/SVG/1.1/DTD/svg11.dtd">
<svg xmlns:xlink="http://www.w3.org/1999/xlink" width="1226.785125pt" height="588.52775pt" viewBox="0 0 1226.785125 588.52775" xmlns="http://www.w3.org/2000/svg" version="1.1">
 <metadata>
  <rdf:RDF xmlns:dc="http://purl.org/dc/elements/1.1/" xmlns:cc="http://creativecommons.org/ns#" xmlns:rdf="http://www.w3.org/1999/02/22-rdf-syntax-ns#">
   <cc:Work>
    <dc:type rdf:resource="http://purl.org/dc/dcmitype/StillImage"/>
    <dc:date>2026-04-14T08:02:54.612117</dc:date>
    <dc:format>image/svg+xml</dc:format>
    <dc:creator>
     <cc:Agent>
      <dc:title>Matplotlib v3.10.3, https://matplotlib.org/</dc:title>
     </cc:Agent>
    </dc:creator>
   </cc:Work>
  </rdf:RDF>
 </metadata>
 <defs>
  <style type="text/css">*{stroke-linejoin: round; stroke-linecap: butt}</style>
 </defs>
 <g id="figure_1">
  <g id="patch_1">
   <path d="M 0 588.52775 
L 1226.785125 588.52775 
L 1226.785125 0 
L 0 0 
z
" style="fill: #ffffff"/>
  </g>
  <g id="axes_1">
   <g id="patch_2">
    <path d="M 63.295625 537.303375 
L 1210.687625 537.303375 
L 1210.687625 27.759375 
L 63.295625 27.759375 
z
" style="fill: #ffffff"/>
   </g>
   <g id="line2d_1">
    <path d="M 221.062025 537.303375 
L 221.062025 27.759375 
" clip-path="url(#p192b89c53f)" style="fill: none"/>
   </g>
   <g id="line2d_2">
    <path d="M 426.660329 537.303375 
L 426.660329 27.759375 
" clip-path="url(#p192b89c53f)" style="fill: none"/>
   </g>
   <g id="line2d_3">
    <path d="M 492.133385 537.303375 
L 492.133385 27.759375 
" clip-path="url(#p192b89c53f)" style="fill: none"/>
   </g>
   <g id="line2d_4">
    <path d="M 555.239945 537.303375 
L 555.239945 27.759375 
" clip-path="url(#p192b89c53f)" style="fill: none"/>
   </g>
   <g id="line2d_5">
    <path d="M 639.142985 537.303375 
L 639.142985 27.759375 
" clip-path="url(#p192b89c53f)" style="fill: none"/>
   </g>
   <g id="line2d_6">
    <path d="M 691.492745 537.303375 
L 691.492745 8.711001 
" clip-path="url(#p192b89c53f)" style="fill: none"/>
   </g>
   <g id="line2d_7">
    <path d="M 768.941705 537.303375 
L 768.941705 27.759375 
" clip-path="url(#p192b89c53f)" style="fill: none"/>
   </g>
   <g id="line2d_8">
    <path d="M 822.008585 537.303375 
L 822.008585 27.759375 
" clip-path="url(#p192b89c53f)" style="fill: none"/>
   </g>
   <g id="line2d_9">
    <path d="M 988.380425 537.303375 
L 988.380425 27.759375 
" clip-path="url(#p192b89c53f)" style="fill: none"/>
   </g>
   <g id="line2d_10">
    <path d="M 1024.236425 537.303375 
L 1024.236425 27.759375 
" clip-path="url(#p192b89c53f)" style="fill: none"/>
   </g>
   <g id="line2d_11">
    <path d="M 1101.685385 537.303375 
L 1101.685385 27.759375 
" clip-path="url(#p192b89c53f)" style="fill: none"/>
   </g>
   <g id="matplotlib.axis_1">
    <g id="xtick_1">
     <g id="line2d_12">
      <path d="M 63.295625 537.303375 
L 63.295625 27.759375 
" clip-path="url(#p192b89c53f)" style="fill: none; stroke: #b0b0b0; stroke-opacity: 0.3; stroke-width: 0.8; stroke-linecap: square"/>
     </g>
     <g id="line2d_13">
      <defs>
       <path id="m6034f44ab4" d="M 0 0 
L 0 5 
" style="stroke: #000000; stroke-width: 1.2"/>
      </defs>
      <g>
       <use xlink:href="#m6034f44ab4" x="63.295625" y="537.303375" style="stroke: #000000; stroke-width: 1.2"/>
      </g>
     </g>
     <g id="text_1">
      <!-- 20 -->
      <g transform="translate(54.398125 557.255875) scale(0.16 -0.16)">
       <defs>
        <path id="ArialMT-32" d="M 3222 541 
L 3222 0 
L 194 0 
Q 188 203 259 391 
Q 375 700 629 1000 
Q 884 1300 1366 1694 
Q 2113 2306 2375 2664 
Q 2638 3022 2638 3341 
Q 2638 3675 2398 3904 
Q 2159 4134 1775 4134 
Q 1369 4134 1125 3890 
Q 881 3647 878 3216 
L 300 3275 
Q 359 3922 746 4261 
Q 1134 4600 1788 4600 
Q 2447 4600 2831 4234 
Q 3216 3869 3216 3328 
Q 3216 3053 3103 2787 
Q 2991 2522 2730 2228 
Q 2469 1934 1863 1422 
Q 1356 997 1212 845 
Q 1069 694 975 541 
L 3222 541 
z
" transform="scale(0.015625)"/>
        <path id="ArialMT-30" d="M 266 2259 
Q 266 3072 433 3567 
Q 600 4063 929 4331 
Q 1259 4600 1759 4600 
Q 2128 4600 2406 4451 
Q 2684 4303 2865 4023 
Q 3047 3744 3150 3342 
Q 3253 2941 3253 2259 
Q 3253 1453 3087 958 
Q 2922 463 2592 192 
Q 2263 -78 1759 -78 
Q 1097 -78 719 397 
Q 266 969 266 2259 
z
M 844 2259 
Q 844 1131 1108 757 
Q 1372 384 1759 384 
Q 2147 384 2411 759 
Q 2675 1134 2675 2259 
Q 2675 3391 2411 3762 
Q 2147 4134 1753 4134 
Q 1366 4134 1134 3806 
Q 844 3388 844 2259 
z
" transform="scale(0.015625)"/>
       </defs>
       <use xlink:href="#ArialMT-32"/>
       <use xlink:href="#ArialMT-30" transform="translate(55.615234 0)"/>
      </g>
     </g>
    </g>
    <g id="xtick_2">
     <g id="line2d_14">
      <path d="M 135.007625 537.303375 
L 135.007625 27.759375 
" clip-path="url(#p192b89c53f)" style="fill: none; stroke: #b0b0b0; stroke-opacity: 0.3; stroke-width: 0.8; stroke-linecap: square"/>
     </g>
     <g id="line2d_15">
      <g>
       <use xlink:href="#m6034f44ab4" x="135.007625" y="537.303375" style="stroke: #000000; stroke-width: 1.2"/>
      </g>
     </g>
     <g id="text_2">
      <!-- 21 -->
      <g transform="translate(126.110125 557.255875) scale(0.16 -0.16)">
       <defs>
        <path id="ArialMT-31" d="M 2384 0 
L 1822 0 
L 1822 3584 
Q 1619 3391 1289 3197 
Q 959 3003 697 2906 
L 697 3450 
Q 1169 3672 1522 3987 
Q 1875 4303 2022 4600 
L 2384 4600 
L 2384 0 
z
" transform="scale(0.015625)"/>
       </defs>
       <use xlink:href="#ArialMT-32"/>
       <use xlink:href="#ArialMT-31" transform="translate(55.615234 0)"/>
      </g>
     </g>
    </g>
    <g id="xtick_3">
     <g id="line2d_16">
      <path d="M 206.719625 537.303375 
L 206.719625 27.759375 
" clip-path="url(#p192b89c53f)" style="fill: none; stroke: #b0b0b0; stroke-opacity: 0.3; stroke-width: 0.8; stroke-linecap: square"/>
     </g>
     <g id="line2d_17">
      <g>
       <use xlink:href="#m6034f44ab4" x="206.719625" y="537.303375" style="stroke: #000000; stroke-width: 1.2"/>
      </g>
     </g>
     <g id="text_3">
      <!-- 22 -->
      <g transform="translate(197.822125 557.255875) scale(0.16 -0.16)">
       <use xlink:href="#ArialMT-32"/>
       <use xlink:href="#ArialMT-32" transform="translate(55.615234 0)"/>
      </g>
     </g>
    </g>
    <g id="xtick_4">
     <g id="line2d_18">
      <path d="M 278.431625 537.303375 
L 278.431625 27.759375 
" clip-path="url(#p192b89c53f)" style="fill: none; stroke: #b0b0b0; stroke-opacity: 0.3; stroke-width: 0.8; stroke-linecap: square"/>
     </g>
     <g id="line2d_19">
      <g>
       <use xlink:href="#m6034f44ab4" x="278.431625" y="537.303375" style="stroke: #000000; stroke-width: 1.2"/>
      </g>
     </g>
     <g id="text_4">
      <!-- 23 -->
      <g transform="translate(269.534125 557.255875) scale(0.16 -0.16)">
       <defs>
        <path id="ArialMT-33" d="M 269 1209 
L 831 1284 
Q 928 806 1161 595 
Q 1394 384 1728 384 
Q 2125 384 2398 659 
Q 2672 934 2672 1341 
Q 2672 1728 2419 1979 
Q 2166 2231 1775 2231 
Q 1616 2231 1378 2169 
L 1441 2663 
Q 1497 2656 1531 2656 
Q 1891 2656 2178 2843 
Q 2466 3031 2466 3422 
Q 2466 3731 2256 3934 
Q 2047 4138 1716 4138 
Q 1388 4138 1169 3931 
Q 950 3725 888 3313 
L 325 3413 
Q 428 3978 793 4289 
Q 1159 4600 1703 4600 
Q 2078 4600 2393 4439 
Q 2709 4278 2876 4000 
Q 3044 3722 3044 3409 
Q 3044 3113 2884 2869 
Q 2725 2625 2413 2481 
Q 2819 2388 3044 2092 
Q 3269 1797 3269 1353 
Q 3269 753 2831 336 
Q 2394 -81 1725 -81 
Q 1122 -81 723 278 
Q 325 638 269 1209 
z
" transform="scale(0.015625)"/>
       </defs>
       <use xlink:href="#ArialMT-32"/>
       <use xlink:href="#ArialMT-33" transform="translate(55.615234 0)"/>
      </g>
     </g>
    </g>
    <g id="xtick_5">
     <g id="line2d_20">
      <path d="M 350.143625 537.303375 
L 350.143625 27.759375 
" clip-path="url(#p192b89c53f)" style="fill: none; stroke: #b0b0b0; stroke-opacity: 0.3; stroke-width: 0.8; stroke-linecap: square"/>
     </g>
     <g id="line2d_21">
      <g>
       <use xlink:href="#m6034f44ab4" x="350.143625" y="537.303375" style="stroke: #000000; stroke-width: 1.2"/>
      </g>
     </g>
     <g id="text_5">
      <!-- 24 -->
      <g transform="translate(341.246125 557.255875) scale(0.16 -0.16)">
       <defs>
        <path id="ArialMT-34" d="M 2069 0 
L 2069 1097 
L 81 1097 
L 81 1613 
L 2172 4581 
L 2631 4581 
L 2631 1613 
L 3250 1613 
L 3250 1097 
L 2631 1097 
L 2631 0 
L 2069 0 
z
M 2069 1613 
L 2069 3678 
L 634 1613 
L 2069 1613 
z
" transform="scale(0.015625)"/>
       </defs>
       <use xlink:href="#ArialMT-32"/>
       <use xlink:href="#ArialMT-34" transform="translate(55.615234 0)"/>
      </g>
     </g>
    </g>
    <g id="xtick_6">
     <g id="line2d_22">
      <path d="M 421.855625 537.303375 
L 421.855625 27.759375 
" clip-path="url(#p192b89c53f)" style="fill: none; stroke: #b0b0b0; stroke-opacity: 0.3; stroke-width: 0.8; stroke-linecap: square"/>
     </g>
     <g id="line2d_23">
      <g>
       <use xlink:href="#m6034f44ab4" x="421.855625" y="537.303375" style="stroke: #000000; stroke-width: 1.2"/>
      </g>
     </g>
     <g id="text_6">
      <!-- 25 -->
      <g transform="translate(412.958125 557.255875) scale(0.16 -0.16)">
       <defs>
        <path id="ArialMT-35" d="M 266 1200 
L 856 1250 
Q 922 819 1161 601 
Q 1400 384 1738 384 
Q 2144 384 2425 690 
Q 2706 997 2706 1503 
Q 2706 1984 2436 2262 
Q 2166 2541 1728 2541 
Q 1456 2541 1237 2417 
Q 1019 2294 894 2097 
L 366 2166 
L 809 4519 
L 3088 4519 
L 3088 3981 
L 1259 3981 
L 1013 2750 
Q 1425 3038 1878 3038 
Q 2478 3038 2890 2622 
Q 3303 2206 3303 1553 
Q 3303 931 2941 478 
Q 2500 -78 1738 -78 
Q 1113 -78 717 272 
Q 322 622 266 1200 
z
" transform="scale(0.015625)"/>
       </defs>
       <use xlink:href="#ArialMT-32"/>
       <use xlink:href="#ArialMT-35" transform="translate(55.615234 0)"/>
      </g>
     </g>
    </g>
    <g id="xtick_7">
     <g id="line2d_24">
      <path d="M 493.567625 537.303375 
L 493.567625 27.759375 
" clip-path="url(#p192b89c53f)" style="fill: none; stroke: #b0b0b0; stroke-opacity: 0.3; stroke-width: 0.8; stroke-linecap: square"/>
     </g>
     <g id="line2d_25">
      <g>
       <use xlink:href="#m6034f44ab4" x="493.567625" y="537.303375" style="stroke: #000000; stroke-width: 1.2"/>
      </g>
     </g>
     <g id="text_7">
      <!-- 26 -->
      <g transform="translate(484.670125 557.255875) scale(0.16 -0.16)">
       <defs>
        <path id="ArialMT-36" d="M 3184 3459 
L 2625 3416 
Q 2550 3747 2413 3897 
Q 2184 4138 1850 4138 
Q 1581 4138 1378 3988 
Q 1113 3794 959 3422 
Q 806 3050 800 2363 
Q 1003 2672 1297 2822 
Q 1591 2972 1913 2972 
Q 2475 2972 2870 2558 
Q 3266 2144 3266 1488 
Q 3266 1056 3080 686 
Q 2894 316 2569 119 
Q 2244 -78 1831 -78 
Q 1128 -78 684 439 
Q 241 956 241 2144 
Q 241 3472 731 4075 
Q 1159 4600 1884 4600 
Q 2425 4600 2770 4297 
Q 3116 3994 3184 3459 
z
M 888 1484 
Q 888 1194 1011 928 
Q 1134 663 1356 523 
Q 1578 384 1822 384 
Q 2178 384 2434 671 
Q 2691 959 2691 1453 
Q 2691 1928 2437 2201 
Q 2184 2475 1800 2475 
Q 1419 2475 1153 2201 
Q 888 1928 888 1484 
z
" transform="scale(0.015625)"/>
       </defs>
       <use xlink:href="#ArialMT-32"/>
       <use xlink:href="#ArialMT-36" transform="translate(55.615234 0)"/>
      </g>
     </g>
    </g>
    <g id="xtick_8">
     <g id="line2d_26">
      <path d="M 565.279625 537.303375 
L 565.279625 27.759375 
" clip-path="url(#p192b89c53f)" style="fill: none; stroke: #b0b0b0; stroke-opacity: 0.3; stroke-width: 0.8; stroke-linecap: square"/>
     </g>
     <g id="line2d_27">
      <g>
       <use xlink:href="#m6034f44ab4" x="565.279625" y="537.303375" style="stroke: #000000; stroke-width: 1.2"/>
      </g>
     </g>
     <g id="text_8">
      <!-- 27 -->
      <g transform="translate(556.382125 557.255875) scale(0.16 -0.16)">
       <defs>
        <path id="ArialMT-37" d="M 303 3981 
L 303 4522 
L 3269 4522 
L 3269 4084 
Q 2831 3619 2401 2847 
Q 1972 2075 1738 1259 
Q 1569 684 1522 0 
L 944 0 
Q 953 541 1156 1306 
Q 1359 2072 1739 2783 
Q 2119 3494 2547 3981 
L 303 3981 
z
" transform="scale(0.015625)"/>
       </defs>
       <use xlink:href="#ArialMT-32"/>
       <use xlink:href="#ArialMT-37" transform="translate(55.615234 0)"/>
      </g>
     </g>
    </g>
    <g id="xtick_9">
     <g id="line2d_28">
      <path d="M 636.991625 537.303375 
L 636.991625 27.759375 
" clip-path="url(#p192b89c53f)" style="fill: none; stroke: #b0b0b0; stroke-opacity: 0.3; stroke-width: 0.8; stroke-linecap: square"/>
     </g>
     <g id="line2d_29">
      <g>
       <use xlink:href="#m6034f44ab4" x="636.991625" y="537.303375" style="stroke: #000000; stroke-width: 1.2"/>
      </g>
     </g>
     <g id="text_9">
      <!-- 28 -->
      <g transform="translate(628.094125 557.255875) scale(0.16 -0.16)">
       <defs>
        <path id="ArialMT-38" d="M 1131 2484 
Q 781 2613 612 2850 
Q 444 3088 444 3419 
Q 444 3919 803 4259 
Q 1163 4600 1759 4600 
Q 2359 4600 2725 4251 
Q 3091 3903 3091 3403 
Q 3091 3084 2923 2848 
Q 2756 2613 2416 2484 
Q 2838 2347 3058 2040 
Q 3278 1734 3278 1309 
Q 3278 722 2862 322 
Q 2447 -78 1769 -78 
Q 1091 -78 675 323 
Q 259 725 259 1325 
Q 259 1772 486 2073 
Q 713 2375 1131 2484 
z
M 1019 3438 
Q 1019 3113 1228 2906 
Q 1438 2700 1772 2700 
Q 2097 2700 2305 2904 
Q 2513 3109 2513 3406 
Q 2513 3716 2298 3927 
Q 2084 4138 1766 4138 
Q 1444 4138 1231 3931 
Q 1019 3725 1019 3438 
z
M 838 1322 
Q 838 1081 952 856 
Q 1066 631 1291 507 
Q 1516 384 1775 384 
Q 2178 384 2440 643 
Q 2703 903 2703 1303 
Q 2703 1709 2433 1975 
Q 2163 2241 1756 2241 
Q 1359 2241 1098 1978 
Q 838 1716 838 1322 
z
" transform="scale(0.015625)"/>
       </defs>
       <use xlink:href="#ArialMT-32"/>
       <use xlink:href="#ArialMT-38" transform="translate(55.615234 0)"/>
      </g>
     </g>
    </g>
    <g id="xtick_10">
     <g id="line2d_30">
      <path d="M 708.703625 537.303375 
L 708.703625 27.759375 
" clip-path="url(#p192b89c53f)" style="fill: none; stroke: #b0b0b0; stroke-opacity: 0.3; stroke-width: 0.8; stroke-linecap: square"/>
     </g>
     <g id="line2d_31">
      <g>
       <use xlink:href="#m6034f44ab4" x="708.703625" y="537.303375" style="stroke: #000000; stroke-width: 1.2"/>
      </g>
     </g>
     <g id="text_10">
      <!-- 29 -->
      <g transform="translate(699.806125 557.255875) scale(0.16 -0.16)">
       <defs>
        <path id="ArialMT-39" d="M 350 1059 
L 891 1109 
Q 959 728 1153 556 
Q 1347 384 1650 384 
Q 1909 384 2104 503 
Q 2300 622 2425 820 
Q 2550 1019 2634 1356 
Q 2719 1694 2719 2044 
Q 2719 2081 2716 2156 
Q 2547 1888 2255 1720 
Q 1963 1553 1622 1553 
Q 1053 1553 659 1965 
Q 266 2378 266 3053 
Q 266 3750 677 4175 
Q 1088 4600 1706 4600 
Q 2153 4600 2523 4359 
Q 2894 4119 3086 3673 
Q 3278 3228 3278 2384 
Q 3278 1506 3087 986 
Q 2897 466 2520 194 
Q 2144 -78 1638 -78 
Q 1100 -78 759 220 
Q 419 519 350 1059 
z
M 2653 3081 
Q 2653 3566 2395 3850 
Q 2138 4134 1775 4134 
Q 1400 4134 1122 3828 
Q 844 3522 844 3034 
Q 844 2597 1108 2323 
Q 1372 2050 1759 2050 
Q 2150 2050 2401 2323 
Q 2653 2597 2653 3081 
z
" transform="scale(0.015625)"/>
       </defs>
       <use xlink:href="#ArialMT-32"/>
       <use xlink:href="#ArialMT-39" transform="translate(55.615234 0)"/>
      </g>
     </g>
    </g>
    <g id="xtick_11">
     <g id="line2d_32">
      <path d="M 780.415625 537.303375 
L 780.415625 27.759375 
" clip-path="url(#p192b89c53f)" style="fill: none; stroke: #b0b0b0; stroke-opacity: 0.3; stroke-width: 0.8; stroke-linecap: square"/>
     </g>
     <g id="line2d_33">
      <g>
       <use xlink:href="#m6034f44ab4" x="780.415625" y="537.303375" style="stroke: #000000; stroke-width: 1.2"/>
      </g>
     </g>
     <g id="text_11">
      <!-- 30 -->
      <g transform="translate(771.518125 557.255875) scale(0.16 -0.16)">
       <use xlink:href="#ArialMT-33"/>
       <use xlink:href="#ArialMT-30" transform="translate(55.615234 0)"/>
      </g>
     </g>
    </g>
    <g id="xtick_12">
     <g id="line2d_34">
      <path d="M 852.127625 537.303375 
L 852.127625 27.759375 
" clip-path="url(#p192b89c53f)" style="fill: none; stroke: #b0b0b0; stroke-opacity: 0.3; stroke-width: 0.8; stroke-linecap: square"/>
     </g>
     <g id="line2d_35">
      <g>
       <use xlink:href="#m6034f44ab4" x="852.127625" y="537.303375" style="stroke: #000000; stroke-width: 1.2"/>
      </g>
     </g>
     <g id="text_12">
      <!-- 31 -->
      <g transform="translate(843.230125 557.255875) scale(0.16 -0.16)">
       <use xlink:href="#ArialMT-33"/>
       <use xlink:href="#ArialMT-31" transform="translate(55.615234 0)"/>
      </g>
     </g>
    </g>
    <g id="xtick_13">
     <g id="line2d_36">
      <path d="M 923.839625 537.303375 
L 923.839625 27.759375 
" clip-path="url(#p192b89c53f)" style="fill: none; stroke: #b0b0b0; stroke-opacity: 0.3; stroke-width: 0.8; stroke-linecap: square"/>
     </g>
     <g id="line2d_37">
      <g>
       <use xlink:href="#m6034f44ab4" x="923.839625" y="537.303375" style="stroke: #000000; stroke-width: 1.2"/>
      </g>
     </g>
     <g id="text_13">
      <!-- 32 -->
      <g transform="translate(914.942125 557.255875) scale(0.16 -0.16)">
       <use xlink:href="#ArialMT-33"/>
       <use xlink:href="#ArialMT-32" transform="translate(55.615234 0)"/>
      </g>
     </g>
    </g>
    <g id="xtick_14">
     <g id="line2d_38">
      <path d="M 995.551625 537.303375 
L 995.551625 27.759375 
" clip-path="url(#p192b89c53f)" style="fill: none; stroke: #b0b0b0; stroke-opacity: 0.3; stroke-width: 0.8; stroke-linecap: square"/>
     </g>
     <g id="line2d_39">
      <g>
       <use xlink:href="#m6034f44ab4" x="995.551625" y="537.303375" style="stroke: #000000; stroke-width: 1.2"/>
      </g>
     </g>
     <g id="text_14">
      <!-- 33 -->
      <g transform="translate(986.654125 557.255875) scale(0.16 -0.16)">
       <use xlink:href="#ArialMT-33"/>
       <use xlink:href="#ArialMT-33" transform="translate(55.615234 0)"/>
      </g>
     </g>
    </g>
    <g id="xtick_15">
     <g id="line2d_40">
      <path d="M 1067.263625 537.303375 
L 1067.263625 27.759375 
" clip-path="url(#p192b89c53f)" style="fill: none; stroke: #b0b0b0; stroke-opacity: 0.3; stroke-width: 0.8; stroke-linecap: square"/>
     </g>
     <g id="line2d_41">
      <g>
       <use xlink:href="#m6034f44ab4" x="1067.263625" y="537.303375" style="stroke: #000000; stroke-width: 1.2"/>
      </g>
     </g>
     <g id="text_15">
      <!-- 34 -->
      <g transform="translate(1058.366125 557.255875) scale(0.16 -0.16)">
       <use xlink:href="#ArialMT-33"/>
       <use xlink:href="#ArialMT-34" transform="translate(55.615234 0)"/>
      </g>
     </g>
    </g>
    <g id="xtick_16">
     <g id="line2d_42">
      <path d="M 1138.975625 537.303375 
L 1138.975625 27.759375 
" clip-path="url(#p192b89c53f)" style="fill: none; stroke: #b0b0b0; stroke-opacity: 0.3; stroke-width: 0.8; stroke-linecap: square"/>
     </g>
     <g id="line2d_43">
      <g>
       <use xlink:href="#m6034f44ab4" x="1138.975625" y="537.303375" style="stroke: #000000; stroke-width: 1.2"/>
      </g>
     </g>
     <g id="text_16">
      <!-- 35 -->
      <g transform="translate(1130.078125 557.255875) scale(0.16 -0.16)">
       <use xlink:href="#ArialMT-33"/>
       <use xlink:href="#ArialMT-35" transform="translate(55.615234 0)"/>
      </g>
     </g>
    </g>
    <g id="xtick_17">
     <g id="line2d_44">
      <path d="M 1210.687625 537.303375 
L 1210.687625 27.759375 
" clip-path="url(#p192b89c53f)" style="fill: none; stroke: #b0b0b0; stroke-opacity: 0.3; stroke-width: 0.8; stroke-linecap: square"/>
     </g>
     <g id="line2d_45">
      <g>
       <use xlink:href="#m6034f44ab4" x="1210.687625" y="537.303375" style="stroke: #000000; stroke-width: 1.2"/>
      </g>
     </g>
     <g id="text_17">
      <!-- 36 -->
      <g transform="translate(1201.790125 557.255875) scale(0.16 -0.16)">
       <use xlink:href="#ArialMT-33"/>
       <use xlink:href="#ArialMT-36" transform="translate(55.615234 0)"/>
      </g>
     </g>
    </g>
    <g id="text_18">
     <!-- Время (мин) -->
     <g transform="translate(585.238812 577.539312) scale(0.18 -0.18)">
      <defs>
       <path id="ArialMT-412" d="M 469 0 
L 469 4581 
L 2188 4581 
Q 2713 4581 3030 4442 
Q 3347 4303 3526 4014 
Q 3706 3725 3706 3409 
Q 3706 3116 3547 2856 
Q 3388 2597 3066 2438 
Q 3481 2316 3704 2022 
Q 3928 1728 3928 1328 
Q 3928 1006 3792 729 
Q 3656 453 3456 303 
Q 3256 153 2954 76 
Q 2653 0 2216 0 
L 469 0 
z
M 1075 2656 
L 2066 2656 
Q 2469 2656 2644 2709 
Q 2875 2778 2992 2937 
Q 3109 3097 3109 3338 
Q 3109 3566 3000 3739 
Q 2891 3913 2687 3977 
Q 2484 4041 1991 4041 
L 1075 4041 
L 1075 2656 
z
M 1075 541 
L 2216 541 
Q 2509 541 2628 563 
Q 2838 600 2978 687 
Q 3119 775 3209 942 
Q 3300 1109 3300 1328 
Q 3300 1584 3169 1773 
Q 3038 1963 2805 2039 
Q 2572 2116 2134 2116 
L 1075 2116 
L 1075 541 
z
" transform="scale(0.015625)"/>
       <path id="ArialMT-440" d="M 422 -1272 
L 422 3319 
L 934 3319 
L 934 2888 
Q 1116 3141 1344 3267 
Q 1572 3394 1897 3394 
Q 2322 3394 2647 3175 
Q 2972 2956 3137 2557 
Q 3303 2159 3303 1684 
Q 3303 1175 3120 767 
Q 2938 359 2589 142 
Q 2241 -75 1856 -75 
Q 1575 -75 1351 44 
Q 1128 163 984 344 
L 984 -1272 
L 422 -1272 
z
M 931 1641 
Q 931 1000 1190 694 
Q 1450 388 1819 388 
Q 2194 388 2461 705 
Q 2728 1022 2728 1688 
Q 2728 2322 2467 2637 
Q 2206 2953 1844 2953 
Q 1484 2953 1207 2617 
Q 931 2281 931 1641 
z
" transform="scale(0.015625)"/>
       <path id="ArialMT-435" d="M 2694 1069 
L 3275 997 
Q 3138 488 2766 206 
Q 2394 -75 1816 -75 
Q 1088 -75 661 373 
Q 234 822 234 1631 
Q 234 2469 665 2931 
Q 1097 3394 1784 3394 
Q 2450 3394 2872 2941 
Q 3294 2488 3294 1666 
Q 3294 1616 3291 1516 
L 816 1516 
Q 847 969 1125 678 
Q 1403 388 1819 388 
Q 2128 388 2347 550 
Q 2566 713 2694 1069 
z
M 847 1978 
L 2700 1978 
Q 2663 2397 2488 2606 
Q 2219 2931 1791 2931 
Q 1403 2931 1139 2672 
Q 875 2413 847 1978 
z
" transform="scale(0.015625)"/>
       <path id="ArialMT-43c" d="M 438 3319 
L 1313 3319 
L 2184 663 
L 3153 3319 
L 3963 3319 
L 3963 0 
L 3400 0 
L 3400 2672 
L 2419 0 
L 1916 0 
L 988 2800 
L 988 0 
L 438 0 
L 438 3319 
z
" transform="scale(0.015625)"/>
       <path id="ArialMT-44f" d="M 3034 3319 
L 3034 0 
L 2475 0 
L 2475 1294 
L 2150 1294 
Q 1853 1294 1708 1217 
Q 1563 1141 1284 725 
L 794 0 
L 97 0 
L 703 894 
Q 981 1303 1256 1356 
Q 775 1422 542 1703 
Q 309 1984 309 2350 
Q 309 2781 614 3050 
Q 919 3319 1497 3319 
L 3034 3319 
z
M 2475 2853 
L 1675 2853 
Q 1172 2853 1026 2697 
Q 881 2541 881 2331 
Q 881 2034 1095 1895 
Q 1309 1756 1853 1756 
L 2475 1756 
L 2475 2853 
z
" transform="scale(0.015625)"/>
       <path id="ArialMT-20" transform="scale(0.015625)"/>
       <path id="ArialMT-28" d="M 1497 -1347 
Q 1031 -759 709 28 
Q 388 816 388 1659 
Q 388 2403 628 3084 
Q 909 3875 1497 4659 
L 1900 4659 
Q 1522 4009 1400 3731 
Q 1209 3300 1100 2831 
Q 966 2247 966 1656 
Q 966 153 1900 -1347 
L 1497 -1347 
z
" transform="scale(0.015625)"/>
       <path id="ArialMT-438" d="M 422 3319 
L 984 3319 
L 984 788 
L 2544 3319 
L 3150 3319 
L 3150 0 
L 2588 0 
L 2588 2516 
L 1028 0 
L 422 0 
L 422 3319 
z
" transform="scale(0.015625)"/>
       <path id="ArialMT-43d" d="M 425 3319 
L 988 3319 
L 988 1938 
L 2547 1938 
L 2547 3319 
L 3109 3319 
L 3109 0 
L 2547 0 
L 2547 1472 
L 988 1472 
L 988 0 
L 425 0 
L 425 3319 
z
" transform="scale(0.015625)"/>
       <path id="ArialMT-29" d="M 791 -1347 
L 388 -1347 
Q 1322 153 1322 1656 
Q 1322 2244 1188 2822 
Q 1081 3291 891 3722 
Q 769 4003 388 4659 
L 791 4659 
Q 1378 3875 1659 3084 
Q 1900 2403 1900 1659 
Q 1900 816 1576 28 
Q 1253 -759 791 -1347 
z
" transform="scale(0.015625)"/>
      </defs>
      <use xlink:href="#ArialMT-412"/>
      <use xlink:href="#ArialMT-440" transform="translate(66.699219 0)"/>
      <use xlink:href="#ArialMT-435" transform="translate(122.314453 0)"/>
      <use xlink:href="#ArialMT-43c" transform="translate(177.929688 0)"/>
      <use xlink:href="#ArialMT-44f" transform="translate(246.679688 0)"/>
      <use xlink:href="#ArialMT-20" transform="translate(300.830078 0)"/>
      <use xlink:href="#ArialMT-28" transform="translate(328.613281 0)"/>
      <use xlink:href="#ArialMT-43c" transform="translate(361.914062 0)"/>
      <use xlink:href="#ArialMT-438" transform="translate(430.664062 0)"/>
      <use xlink:href="#ArialMT-43d" transform="translate(486.523438 0)"/>
      <use xlink:href="#ArialMT-29" transform="translate(541.748047 0)"/>
     </g>
    </g>
   </g>
   <g id="matplotlib.axis_2">
    <g id="ytick_1">
     <g id="line2d_46">
      <path d="M 63.295625 527.779188 
L 1210.687625 527.779188 
" clip-path="url(#p192b89c53f)" style="fill: none; stroke: #b0b0b0; stroke-opacity: 0.3; stroke-width: 0.8; stroke-linecap: square"/>
     </g>
     <g id="line2d_47">
      <defs>
       <path id="mb8ea840406" d="M 0 0 
L -5 0 
" style="stroke: #000000; stroke-width: 1.2"/>
      </defs>
      <g>
       <use xlink:href="#mb8ea840406" x="63.295625" y="527.779188" style="stroke: #000000; stroke-width: 1.2"/>
      </g>
     </g>
     <g id="text_19">
      <!-- 0 -->
      <g transform="translate(45.898125 533.505438) scale(0.16 -0.16)">
       <use xlink:href="#ArialMT-30"/>
      </g>
     </g>
    </g>
    <g id="ytick_2">
     <g id="line2d_48">
      <path d="M 63.295625 432.537319 
L 1210.687625 432.537319 
" clip-path="url(#p192b89c53f)" style="fill: none; stroke: #b0b0b0; stroke-opacity: 0.3; stroke-width: 0.8; stroke-linecap: square"/>
     </g>
     <g id="line2d_49">
      <g>
       <use xlink:href="#mb8ea840406" x="63.295625" y="432.537319" style="stroke: #000000; stroke-width: 1.2"/>
      </g>
     </g>
     <g id="text_20">
      <!-- 20 -->
      <g transform="translate(37.000625 438.263569) scale(0.16 -0.16)">
       <use xlink:href="#ArialMT-32"/>
       <use xlink:href="#ArialMT-30" transform="translate(55.615234 0)"/>
      </g>
     </g>
    </g>
    <g id="ytick_3">
     <g id="line2d_50">
      <path d="M 63.295625 337.29545 
L 1210.687625 337.29545 
" clip-path="url(#p192b89c53f)" style="fill: none; stroke: #b0b0b0; stroke-opacity: 0.3; stroke-width: 0.8; stroke-linecap: square"/>
     </g>
     <g id="line2d_51">
      <g>
       <use xlink:href="#mb8ea840406" x="63.295625" y="337.29545" style="stroke: #000000; stroke-width: 1.2"/>
      </g>
     </g>
     <g id="text_21">
      <!-- 40 -->
      <g transform="translate(37.000625 343.0217) scale(0.16 -0.16)">
       <use xlink:href="#ArialMT-34"/>
       <use xlink:href="#ArialMT-30" transform="translate(55.615234 0)"/>
      </g>
     </g>
    </g>
    <g id="ytick_4">
     <g id="line2d_52">
      <path d="M 63.295625 242.053581 
L 1210.687625 242.053581 
" clip-path="url(#p192b89c53f)" style="fill: none; stroke: #b0b0b0; stroke-opacity: 0.3; stroke-width: 0.8; stroke-linecap: square"/>
     </g>
     <g id="line2d_53">
      <g>
       <use xlink:href="#mb8ea840406" x="63.295625" y="242.053581" style="stroke: #000000; stroke-width: 1.2"/>
      </g>
     </g>
     <g id="text_22">
      <!-- 60 -->
      <g transform="translate(37.000625 247.779831) scale(0.16 -0.16)">
       <use xlink:href="#ArialMT-36"/>
       <use xlink:href="#ArialMT-30" transform="translate(55.615234 0)"/>
      </g>
     </g>
    </g>
    <g id="ytick_5">
     <g id="line2d_54">
      <path d="M 63.295625 146.811711 
L 1210.687625 146.811711 
" clip-path="url(#p192b89c53f)" style="fill: none; stroke: #b0b0b0; stroke-opacity: 0.3; stroke-width: 0.8; stroke-linecap: square"/>
     </g>
     <g id="line2d_55">
      <g>
       <use xlink:href="#mb8ea840406" x="63.295625" y="146.811711" style="stroke: #000000; stroke-width: 1.2"/>
      </g>
     </g>
     <g id="text_23">
      <!-- 80 -->
      <g transform="translate(37.000625 152.537961) scale(0.16 -0.16)">
       <use xlink:href="#ArialMT-38"/>
       <use xlink:href="#ArialMT-30" transform="translate(55.615234 0)"/>
      </g>
     </g>
    </g>
    <g id="ytick_6">
     <g id="line2d_56">
      <path d="M 63.295625 51.569842 
L 1210.687625 51.569842 
" clip-path="url(#p192b89c53f)" style="fill: none; stroke: #b0b0b0; stroke-opacity: 0.3; stroke-width: 0.8; stroke-linecap: square"/>
     </g>
     <g id="line2d_57">
      <g>
       <use xlink:href="#mb8ea840406" x="63.295625" y="51.569842" style="stroke: #000000; stroke-width: 1.2"/>
      </g>
     </g>
     <g id="text_24">
      <!-- 100 -->
      <g transform="translate(28.103125 57.296092) scale(0.16 -0.16)">
       <use xlink:href="#ArialMT-31"/>
       <use xlink:href="#ArialMT-30" transform="translate(55.615234 0)"/>
       <use xlink:href="#ArialMT-30" transform="translate(111.230469 0)"/>
      </g>
     </g>
    </g>
    <g id="text_25">
     <!-- Относительная интенсивность (%) -->
     <g transform="translate(20.314688 427.247156) rotate(-90) scale(0.18 -0.18)">
      <defs>
       <path id="ArialMT-41e" d="M 309 2231 
Q 309 3372 921 4017 
Q 1534 4663 2503 4663 
Q 3138 4663 3647 4359 
Q 4156 4056 4423 3514 
Q 4691 2972 4691 2284 
Q 4691 1588 4409 1038 
Q 4128 488 3612 205 
Q 3097 -78 2500 -78 
Q 1853 -78 1343 234 
Q 834 547 571 1087 
Q 309 1628 309 2231 
z
M 934 2222 
Q 934 1394 1379 917 
Q 1825 441 2497 441 
Q 3181 441 3623 922 
Q 4066 1403 4066 2288 
Q 4066 2847 3877 3264 
Q 3688 3681 3323 3911 
Q 2959 4141 2506 4141 
Q 1863 4141 1398 3698 
Q 934 3256 934 2222 
z
" transform="scale(0.015625)"/>
       <path id="ArialMT-442" d="M 119 3319 
L 2816 3319 
L 2816 2853 
L 1747 2853 
L 1747 0 
L 1188 0 
L 1188 2853 
L 119 2853 
L 119 3319 
z
" transform="scale(0.015625)"/>
       <path id="ArialMT-43e" d="M 213 1659 
Q 213 2581 725 3025 
Q 1153 3394 1769 3394 
Q 2453 3394 2887 2945 
Q 3322 2497 3322 1706 
Q 3322 1066 3130 698 
Q 2938 331 2570 128 
Q 2203 -75 1769 -75 
Q 1072 -75 642 372 
Q 213 819 213 1659 
z
M 791 1659 
Q 791 1022 1069 705 
Q 1347 388 1769 388 
Q 2188 388 2466 706 
Q 2744 1025 2744 1678 
Q 2744 2294 2464 2611 
Q 2184 2928 1769 2928 
Q 1347 2928 1069 2612 
Q 791 2297 791 1659 
z
" transform="scale(0.015625)"/>
       <path id="ArialMT-441" d="M 2588 1216 
L 3141 1144 
Q 3050 572 2676 248 
Q 2303 -75 1759 -75 
Q 1078 -75 664 370 
Q 250 816 250 1647 
Q 250 2184 428 2587 
Q 606 2991 970 3192 
Q 1334 3394 1763 3394 
Q 2303 3394 2647 3120 
Q 2991 2847 3088 2344 
L 2541 2259 
Q 2463 2594 2264 2762 
Q 2066 2931 1784 2931 
Q 1359 2931 1093 2626 
Q 828 2322 828 1663 
Q 828 994 1084 691 
Q 1341 388 1753 388 
Q 2084 388 2306 591 
Q 2528 794 2588 1216 
z
" transform="scale(0.015625)"/>
       <path id="ArialMT-43b" d="M 697 3319 
L 3309 3319 
L 3309 0 
L 2750 0 
L 2750 2853 
L 1259 2853 
L 1259 1200 
Q 1259 622 1221 437 
Q 1184 253 1015 115 
Q 847 -22 528 -22 
Q 331 -22 75 3 
L 75 472 
L 322 472 
Q 497 472 572 508 
Q 647 544 672 622 
Q 697 700 697 1131 
L 697 3319 
z
" transform="scale(0.015625)"/>
       <path id="ArialMT-44c" d="M 413 3319 
L 975 3319 
L 975 2022 
L 1688 2022 
Q 2384 2022 2761 1751 
Q 3138 1481 3138 1006 
Q 3138 591 2823 295 
Q 2509 0 1819 0 
L 413 0 
L 413 3319 
z
M 975 463 
L 1566 463 
Q 2100 463 2328 594 
Q 2556 725 2556 1003 
Q 2556 1219 2387 1387 
Q 2219 1556 1641 1556 
L 975 1556 
L 975 463 
z
" transform="scale(0.015625)"/>
       <path id="ArialMT-430" d="M 2588 409 
Q 2275 144 1986 34 
Q 1697 -75 1366 -75 
Q 819 -75 525 192 
Q 231 459 231 875 
Q 231 1119 342 1320 
Q 453 1522 633 1644 
Q 813 1766 1038 1828 
Q 1203 1872 1538 1913 
Q 2219 1994 2541 2106 
Q 2544 2222 2544 2253 
Q 2544 2597 2384 2738 
Q 2169 2928 1744 2928 
Q 1347 2928 1158 2789 
Q 969 2650 878 2297 
L 328 2372 
Q 403 2725 575 2942 
Q 747 3159 1072 3276 
Q 1397 3394 1825 3394 
Q 2250 3394 2515 3294 
Q 2781 3194 2906 3042 
Q 3031 2891 3081 2659 
Q 3109 2516 3109 2141 
L 3109 1391 
Q 3109 606 3145 398 
Q 3181 191 3288 0 
L 2700 0 
Q 2613 175 2588 409 
z
M 2541 1666 
Q 2234 1541 1622 1453 
Q 1275 1403 1131 1340 
Q 988 1278 909 1158 
Q 831 1038 831 891 
Q 831 666 1001 516 
Q 1172 366 1500 366 
Q 1825 366 2078 508 
Q 2331 650 2450 897 
Q 2541 1088 2541 1459 
L 2541 1666 
z
" transform="scale(0.015625)"/>
       <path id="ArialMT-432" d="M 425 3319 
L 1722 3319 
Q 2200 3319 2433 3239 
Q 2666 3159 2833 2946 
Q 3000 2734 3000 2438 
Q 3000 2200 2901 2023 
Q 2803 1847 2606 1728 
Q 2841 1650 2995 1436 
Q 3150 1222 3150 928 
Q 3119 456 2812 228 
Q 2506 0 1922 0 
L 425 0 
L 425 3319 
z
M 988 1922 
L 1588 1922 
Q 1947 1922 2081 1959 
Q 2216 1997 2322 2111 
Q 2428 2225 2428 2384 
Q 2428 2647 2242 2750 
Q 2056 2853 1606 2853 
L 988 2853 
L 988 1922 
z
M 988 463 
L 1728 463 
Q 2206 463 2384 573 
Q 2563 684 2572 956 
Q 2572 1116 2469 1252 
Q 2366 1388 2200 1423 
Q 2034 1459 1669 1459 
L 988 1459 
L 988 463 
z
" transform="scale(0.015625)"/>
       <path id="ArialMT-25" d="M 372 3481 
Q 372 3972 619 4315 
Q 866 4659 1334 4659 
Q 1766 4659 2048 4351 
Q 2331 4044 2331 3447 
Q 2331 2866 2045 2552 
Q 1759 2238 1341 2238 
Q 925 2238 648 2547 
Q 372 2856 372 3481 
z
M 1350 4272 
Q 1141 4272 1002 4090 
Q 863 3909 863 3425 
Q 863 2984 1003 2804 
Q 1144 2625 1350 2625 
Q 1563 2625 1702 2806 
Q 1841 2988 1841 3469 
Q 1841 3913 1700 4092 
Q 1559 4272 1350 4272 
z
M 1353 -169 
L 3859 4659 
L 4316 4659 
L 1819 -169 
L 1353 -169 
z
M 3334 1075 
Q 3334 1569 3581 1911 
Q 3828 2253 4300 2253 
Q 4731 2253 5014 1945 
Q 5297 1638 5297 1041 
Q 5297 459 5011 145 
Q 4725 -169 4303 -169 
Q 3888 -169 3611 142 
Q 3334 453 3334 1075 
z
M 4316 1866 
Q 4103 1866 3964 1684 
Q 3825 1503 3825 1019 
Q 3825 581 3965 400 
Q 4106 219 4313 219 
Q 4528 219 4667 400 
Q 4806 581 4806 1063 
Q 4806 1506 4665 1686 
Q 4525 1866 4316 1866 
z
" transform="scale(0.015625)"/>
      </defs>
      <use xlink:href="#ArialMT-41e"/>
      <use xlink:href="#ArialMT-442" transform="translate(77.783203 0)"/>
      <use xlink:href="#ArialMT-43d" transform="translate(123.583984 0)"/>
      <use xlink:href="#ArialMT-43e" transform="translate(178.808594 0)"/>
      <use xlink:href="#ArialMT-441" transform="translate(234.423828 0)"/>
      <use xlink:href="#ArialMT-438" transform="translate(284.423828 0)"/>
      <use xlink:href="#ArialMT-442" transform="translate(340.283203 0)"/>
      <use xlink:href="#ArialMT-435" transform="translate(384.958984 0)"/>
      <use xlink:href="#ArialMT-43b" transform="translate(437.199219 0)"/>
      <use xlink:href="#ArialMT-44c" transform="translate(495.548828 0)"/>
      <use xlink:href="#ArialMT-43d" transform="translate(547.648438 0)"/>
      <use xlink:href="#ArialMT-430" transform="translate(602.873047 0)"/>
      <use xlink:href="#ArialMT-44f" transform="translate(658.488281 0)"/>
      <use xlink:href="#ArialMT-20" transform="translate(712.638672 0)"/>
      <use xlink:href="#ArialMT-438" transform="translate(740.421875 0)"/>
      <use xlink:href="#ArialMT-43d" transform="translate(796.28125 0)"/>
      <use xlink:href="#ArialMT-442" transform="translate(851.505859 0)"/>
      <use xlink:href="#ArialMT-435" transform="translate(896.181641 0)"/>
      <use xlink:href="#ArialMT-43d" transform="translate(951.796875 0)"/>
      <use xlink:href="#ArialMT-441" transform="translate(1007.021484 0)"/>
      <use xlink:href="#ArialMT-438" transform="translate(1057.021484 0)"/>
      <use xlink:href="#ArialMT-432" transform="translate(1112.880859 0)"/>
      <use xlink:href="#ArialMT-43d" transform="translate(1166.005859 0)"/>
      <use xlink:href="#ArialMT-43e" transform="translate(1221.230469 0)"/>
      <use xlink:href="#ArialMT-441" transform="translate(1276.845703 0)"/>
      <use xlink:href="#ArialMT-442" transform="translate(1326.845703 0)"/>
      <use xlink:href="#ArialMT-44c" transform="translate(1372.646484 0)"/>
      <use xlink:href="#ArialMT-20" transform="translate(1424.746094 0)"/>
      <use xlink:href="#ArialMT-28" transform="translate(1452.529297 0)"/>
      <use xlink:href="#ArialMT-25" transform="translate(1485.830078 0)"/>
      <use xlink:href="#ArialMT-29" transform="translate(1574.746094 0)"/>
     </g>
    </g>
   </g>
   <g id="text_26">
    <!-- 14:0 -->
    <g transform="translate(201.164525 485.668535) scale(0.16 -0.16)">
     <defs>
      <path id="DejaVuSans-Bold-31" d="M 750 831 
L 1813 831 
L 1813 3847 
L 722 3622 
L 722 4441 
L 1806 4666 
L 2950 4666 
L 2950 831 
L 4013 831 
L 4013 0 
L 750 0 
L 750 831 
z
" transform="scale(0.015625)"/>
      <path id="DejaVuSans-Bold-34" d="M 2356 3675 
L 1038 1722 
L 2356 1722 
L 2356 3675 
z
M 2156 4666 
L 3494 4666 
L 3494 1722 
L 4159 1722 
L 4159 850 
L 3494 850 
L 3494 0 
L 2356 0 
L 2356 850 
L 288 850 
L 288 1881 
L 2156 4666 
z
" transform="scale(0.015625)"/>
      <path id="DejaVuSans-Bold-3a" d="M 716 3500 
L 1844 3500 
L 1844 2291 
L 716 2291 
L 716 3500 
z
M 716 1209 
L 1844 1209 
L 1844 0 
L 716 0 
L 716 1209 
z
" transform="scale(0.015625)"/>
      <path id="DejaVuSans-Bold-30" d="M 2944 2338 
Q 2944 3213 2780 3570 
Q 2616 3928 2228 3928 
Q 1841 3928 1675 3570 
Q 1509 3213 1509 2338 
Q 1509 1453 1675 1090 
Q 1841 728 2228 728 
Q 2613 728 2778 1090 
Q 2944 1453 2944 2338 
z
M 4147 2328 
Q 4147 1169 3647 539 
Q 3147 -91 2228 -91 
Q 1306 -91 806 539 
Q 306 1169 306 2328 
Q 306 3491 806 4120 
Q 1306 4750 2228 4750 
Q 3147 4750 3647 4120 
Q 4147 3491 4147 2328 
z
" transform="scale(0.015625)"/>
     </defs>
     <use xlink:href="#DejaVuSans-Bold-31"/>
     <use xlink:href="#DejaVuSans-Bold-34" transform="translate(69.580078 0)"/>
     <use xlink:href="#DejaVuSans-Bold-3a" transform="translate(139.160156 0)"/>
     <use xlink:href="#DejaVuSans-Bold-30" transform="translate(179.150391 0)"/>
    </g>
   </g>
   <g id="text_27">
    <!-- 16:0 -->
    <g transform="translate(406.762829 225.801095) scale(0.16 -0.16)">
     <defs>
      <path id="DejaVuSans-Bold-36" d="M 2316 2303 
Q 2000 2303 1842 2098 
Q 1684 1894 1684 1484 
Q 1684 1075 1842 870 
Q 2000 666 2316 666 
Q 2634 666 2792 870 
Q 2950 1075 2950 1484 
Q 2950 1894 2792 2098 
Q 2634 2303 2316 2303 
z
M 3803 4544 
L 3803 3681 
Q 3506 3822 3243 3889 
Q 2981 3956 2731 3956 
Q 2194 3956 1894 3657 
Q 1594 3359 1544 2772 
Q 1750 2925 1990 3001 
Q 2231 3078 2516 3078 
Q 3231 3078 3670 2659 
Q 4109 2241 4109 1563 
Q 4109 813 3618 361 
Q 3128 -91 2303 -91 
Q 1394 -91 895 523 
Q 397 1138 397 2266 
Q 397 3422 980 4083 
Q 1563 4744 2578 4744 
Q 2900 4744 3203 4694 
Q 3506 4644 3803 4544 
z
" transform="scale(0.015625)"/>
     </defs>
     <use xlink:href="#DejaVuSans-Bold-31"/>
     <use xlink:href="#DejaVuSans-Bold-36" transform="translate(69.580078 0)"/>
     <use xlink:href="#DejaVuSans-Bold-3a" transform="translate(139.160156 0)"/>
     <use xlink:href="#DejaVuSans-Bold-30" transform="translate(179.150391 0)"/>
    </g>
   </g>
   <g id="text_28">
    <!-- 16:1 -->
    <g transform="translate(472.235885 47.460695) scale(0.16 -0.16)">
     <use xlink:href="#DejaVuSans-Bold-31"/>
     <use xlink:href="#DejaVuSans-Bold-36" transform="translate(69.580078 0)"/>
     <use xlink:href="#DejaVuSans-Bold-3a" transform="translate(139.160156 0)"/>
     <use xlink:href="#DejaVuSans-Bold-31" transform="translate(179.150391 0)"/>
    </g>
   </g>
   <g id="text_29">
    <!-- 16:2 -->
    <g transform="translate(535.342445 511.145735) scale(0.16 -0.16)">
     <defs>
      <path id="DejaVuSans-Bold-32" d="M 1844 884 
L 3897 884 
L 3897 0 
L 506 0 
L 506 884 
L 2209 2388 
Q 2438 2594 2547 2791 
Q 2656 2988 2656 3200 
Q 2656 3528 2436 3728 
Q 2216 3928 1850 3928 
Q 1569 3928 1234 3808 
Q 900 3688 519 3450 
L 519 4475 
Q 925 4609 1322 4679 
Q 1719 4750 2100 4750 
Q 2938 4750 3402 4381 
Q 3866 4013 3866 3353 
Q 3866 2972 3669 2642 
Q 3472 2313 2841 1759 
L 1844 884 
z
" transform="scale(0.015625)"/>
     </defs>
     <use xlink:href="#DejaVuSans-Bold-31"/>
     <use xlink:href="#DejaVuSans-Bold-36" transform="translate(69.580078 0)"/>
     <use xlink:href="#DejaVuSans-Bold-3a" transform="translate(139.160156 0)"/>
     <use xlink:href="#DejaVuSans-Bold-32" transform="translate(179.150391 0)"/>
    </g>
   </g>
   <g id="text_30">
    <!-- 18:0 -->
    <g transform="translate(619.245485 511.145735) scale(0.16 -0.16)">
     <defs>
      <path id="DejaVuSans-Bold-38" d="M 2228 2088 
Q 1891 2088 1709 1903 
Q 1528 1719 1528 1375 
Q 1528 1031 1709 848 
Q 1891 666 2228 666 
Q 2563 666 2741 848 
Q 2919 1031 2919 1375 
Q 2919 1722 2741 1905 
Q 2563 2088 2228 2088 
z
M 1350 2484 
Q 925 2613 709 2878 
Q 494 3144 494 3541 
Q 494 4131 934 4440 
Q 1375 4750 2228 4750 
Q 3075 4750 3515 4442 
Q 3956 4134 3956 3541 
Q 3956 3144 3739 2878 
Q 3522 2613 3097 2484 
Q 3572 2353 3814 2058 
Q 4056 1763 4056 1313 
Q 4056 619 3595 264 
Q 3134 -91 2228 -91 
Q 1319 -91 855 264 
Q 391 619 391 1313 
Q 391 1763 633 2058 
Q 875 2353 1350 2484 
z
M 1631 3419 
Q 1631 3141 1786 2991 
Q 1941 2841 2228 2841 
Q 2509 2841 2662 2991 
Q 2816 3141 2816 3419 
Q 2816 3697 2662 3845 
Q 2509 3994 2228 3994 
Q 1941 3994 1786 3844 
Q 1631 3694 1631 3419 
z
" transform="scale(0.015625)"/>
     </defs>
     <use xlink:href="#DejaVuSans-Bold-31"/>
     <use xlink:href="#DejaVuSans-Bold-38" transform="translate(69.580078 0)"/>
     <use xlink:href="#DejaVuSans-Bold-3a" transform="translate(139.160156 0)"/>
     <use xlink:href="#DejaVuSans-Bold-30" transform="translate(179.150391 0)"/>
    </g>
   </g>
   <g id="text_31">
    <!-- 18:1 -->
    <g transform="translate(671.595245 446.571748) scale(0.16 -0.16)">
     <use xlink:href="#DejaVuSans-Bold-31"/>
     <use xlink:href="#DejaVuSans-Bold-38" transform="translate(69.580078 0)"/>
     <use xlink:href="#DejaVuSans-Bold-3a" transform="translate(139.160156 0)"/>
     <use xlink:href="#DejaVuSans-Bold-31" transform="translate(179.150391 0)"/>
    </g>
   </g>
   <g id="text_32">
    <!-- 18:2 -->
    <g transform="translate(749.044205 485.668535) scale(0.16 -0.16)">
     <use xlink:href="#DejaVuSans-Bold-31"/>
     <use xlink:href="#DejaVuSans-Bold-38" transform="translate(69.580078 0)"/>
     <use xlink:href="#DejaVuSans-Bold-3a" transform="translate(139.160156 0)"/>
     <use xlink:href="#DejaVuSans-Bold-32" transform="translate(179.150391 0)"/>
    </g>
   </g>
   <g id="text_33">
    <!-- 18:3 -->
    <g transform="translate(802.111085 511.145735) scale(0.16 -0.16)">
     <defs>
      <path id="DejaVuSans-Bold-33" d="M 2981 2516 
Q 3453 2394 3698 2092 
Q 3944 1791 3944 1325 
Q 3944 631 3412 270 
Q 2881 -91 1863 -91 
Q 1503 -91 1142 -33 
Q 781 25 428 141 
L 428 1069 
Q 766 900 1098 814 
Q 1431 728 1753 728 
Q 2231 728 2486 893 
Q 2741 1059 2741 1369 
Q 2741 1688 2480 1852 
Q 2219 2016 1709 2016 
L 1228 2016 
L 1228 2791 
L 1734 2791 
Q 2188 2791 2409 2933 
Q 2631 3075 2631 3366 
Q 2631 3634 2415 3781 
Q 2200 3928 1806 3928 
Q 1516 3928 1219 3862 
Q 922 3797 628 3669 
L 628 4550 
Q 984 4650 1334 4700 
Q 1684 4750 2022 4750 
Q 2931 4750 3382 4451 
Q 3834 4153 3834 3553 
Q 3834 3144 3618 2883 
Q 3403 2622 2981 2516 
z
" transform="scale(0.015625)"/>
     </defs>
     <use xlink:href="#DejaVuSans-Bold-31"/>
     <use xlink:href="#DejaVuSans-Bold-38" transform="translate(69.580078 0)"/>
     <use xlink:href="#DejaVuSans-Bold-3a" transform="translate(139.160156 0)"/>
     <use xlink:href="#DejaVuSans-Bold-33" transform="translate(179.150391 0)"/>
    </g>
   </g>
   <g id="text_34">
    <!-- 20:3 -->
    <g transform="translate(961.311725 511.145735) scale(0.16 -0.16)">
     <use xlink:href="#DejaVuSans-Bold-32"/>
     <use xlink:href="#DejaVuSans-Bold-30" transform="translate(69.580078 0)"/>
     <use xlink:href="#DejaVuSans-Bold-3a" transform="translate(139.160156 0)"/>
     <use xlink:href="#DejaVuSans-Bold-33" transform="translate(179.150391 0)"/>
    </g>
   </g>
   <g id="text_35">
    <!-- 20:4 -->
    <g transform="translate(1011.510125 511.145735) scale(0.16 -0.16)">
     <use xlink:href="#DejaVuSans-Bold-32"/>
     <use xlink:href="#DejaVuSans-Bold-30" transform="translate(69.580078 0)"/>
     <use xlink:href="#DejaVuSans-Bold-3a" transform="translate(139.160156 0)"/>
     <use xlink:href="#DejaVuSans-Bold-34" transform="translate(179.150391 0)"/>
    </g>
   </g>
   <g id="text_36">
    <!-- 20:5 -->
    <g transform="translate(1081.787885 511.145735) scale(0.16 -0.16)">
     <defs>
      <path id="DejaVuSans-Bold-35" d="M 678 4666 
L 3669 4666 
L 3669 3781 
L 1638 3781 
L 1638 3059 
Q 1775 3097 1914 3117 
Q 2053 3138 2203 3138 
Q 3056 3138 3531 2711 
Q 4006 2284 4006 1522 
Q 4006 766 3489 337 
Q 2972 -91 2053 -91 
Q 1656 -91 1267 -14 
Q 878 63 494 219 
L 494 1166 
Q 875 947 1217 837 
Q 1559 728 1863 728 
Q 2300 728 2551 942 
Q 2803 1156 2803 1522 
Q 2803 1891 2551 2103 
Q 2300 2316 1863 2316 
Q 1603 2316 1309 2248 
Q 1016 2181 678 2041 
L 678 4666 
z
" transform="scale(0.015625)"/>
     </defs>
     <use xlink:href="#DejaVuSans-Bold-32"/>
     <use xlink:href="#DejaVuSans-Bold-30" transform="translate(69.580078 0)"/>
     <use xlink:href="#DejaVuSans-Bold-3a" transform="translate(139.160156 0)"/>
     <use xlink:href="#DejaVuSans-Bold-35" transform="translate(179.150391 0)"/>
    </g>
   </g>
   <g id="patch_3">
    <path d="M 63.295625 537.303375 
L 63.295625 27.759375 
" style="fill: none; stroke: #000000; stroke-linejoin: miter; stroke-linecap: square"/>
   </g>
   <g id="patch_4">
    <path d="M 1210.687625 537.303375 
L 1210.687625 27.759375 
" style="fill: none; stroke: #000000; stroke-linejoin: miter; stroke-linecap: square"/>
   </g>
   <g id="patch_5">
    <path d="M 63.295625 537.303375 
L 1210.687625 537.303375 
" style="fill: none; stroke: #000000; stroke-linejoin: miter; stroke-linecap: square"/>
   </g>
   <g id="patch_6">
    <path d="M 63.295625 27.759375 
L 1210.687625 27.759375 
" style="fill: none; stroke: #000000; stroke-linejoin: miter; stroke-linecap: square"/>
   </g>
   <g id="text_37">
    <!-- EIC Chromatograms -->
    <g transform="translate(545.858812 21.759375) scale(0.2 -0.2)">
     <defs>
      <path id="ArialMT-45" d="M 506 0 
L 506 4581 
L 3819 4581 
L 3819 4041 
L 1113 4041 
L 1113 2638 
L 3647 2638 
L 3647 2100 
L 1113 2100 
L 1113 541 
L 3925 541 
L 3925 0 
L 506 0 
z
" transform="scale(0.015625)"/>
      <path id="ArialMT-49" d="M 597 0 
L 597 4581 
L 1203 4581 
L 1203 0 
L 597 0 
z
" transform="scale(0.015625)"/>
      <path id="ArialMT-43" d="M 3763 1606 
L 4369 1453 
Q 4178 706 3683 314 
Q 3188 -78 2472 -78 
Q 1731 -78 1267 223 
Q 803 525 561 1097 
Q 319 1669 319 2325 
Q 319 3041 592 3573 
Q 866 4106 1370 4382 
Q 1875 4659 2481 4659 
Q 3169 4659 3637 4309 
Q 4106 3959 4291 3325 
L 3694 3184 
Q 3534 3684 3231 3912 
Q 2928 4141 2469 4141 
Q 1941 4141 1586 3887 
Q 1231 3634 1087 3207 
Q 944 2781 944 2328 
Q 944 1744 1114 1308 
Q 1284 872 1643 656 
Q 2003 441 2422 441 
Q 2931 441 3284 734 
Q 3638 1028 3763 1606 
z
" transform="scale(0.015625)"/>
      <path id="ArialMT-68" d="M 422 0 
L 422 4581 
L 984 4581 
L 984 2938 
Q 1378 3394 1978 3394 
Q 2347 3394 2619 3248 
Q 2891 3103 3008 2847 
Q 3125 2591 3125 2103 
L 3125 0 
L 2563 0 
L 2563 2103 
Q 2563 2525 2380 2717 
Q 2197 2909 1863 2909 
Q 1613 2909 1392 2779 
Q 1172 2650 1078 2428 
Q 984 2206 984 1816 
L 984 0 
L 422 0 
z
" transform="scale(0.015625)"/>
      <path id="ArialMT-72" d="M 416 0 
L 416 3319 
L 922 3319 
L 922 2816 
Q 1116 3169 1280 3281 
Q 1444 3394 1641 3394 
Q 1925 3394 2219 3213 
L 2025 2691 
Q 1819 2813 1613 2813 
Q 1428 2813 1281 2702 
Q 1134 2591 1072 2394 
Q 978 2094 978 1738 
L 978 0 
L 416 0 
z
" transform="scale(0.015625)"/>
      <path id="ArialMT-6f" d="M 213 1659 
Q 213 2581 725 3025 
Q 1153 3394 1769 3394 
Q 2453 3394 2887 2945 
Q 3322 2497 3322 1706 
Q 3322 1066 3130 698 
Q 2938 331 2570 128 
Q 2203 -75 1769 -75 
Q 1072 -75 642 372 
Q 213 819 213 1659 
z
M 791 1659 
Q 791 1022 1069 705 
Q 1347 388 1769 388 
Q 2188 388 2466 706 
Q 2744 1025 2744 1678 
Q 2744 2294 2464 2611 
Q 2184 2928 1769 2928 
Q 1347 2928 1069 2612 
Q 791 2297 791 1659 
z
" transform="scale(0.015625)"/>
      <path id="ArialMT-6d" d="M 422 0 
L 422 3319 
L 925 3319 
L 925 2853 
Q 1081 3097 1340 3245 
Q 1600 3394 1931 3394 
Q 2300 3394 2536 3241 
Q 2772 3088 2869 2813 
Q 3263 3394 3894 3394 
Q 4388 3394 4653 3120 
Q 4919 2847 4919 2278 
L 4919 0 
L 4359 0 
L 4359 2091 
Q 4359 2428 4304 2576 
Q 4250 2725 4106 2815 
Q 3963 2906 3769 2906 
Q 3419 2906 3187 2673 
Q 2956 2441 2956 1928 
L 2956 0 
L 2394 0 
L 2394 2156 
Q 2394 2531 2256 2718 
Q 2119 2906 1806 2906 
Q 1569 2906 1367 2781 
Q 1166 2656 1075 2415 
Q 984 2175 984 1722 
L 984 0 
L 422 0 
z
" transform="scale(0.015625)"/>
      <path id="ArialMT-61" d="M 2588 409 
Q 2275 144 1986 34 
Q 1697 -75 1366 -75 
Q 819 -75 525 192 
Q 231 459 231 875 
Q 231 1119 342 1320 
Q 453 1522 633 1644 
Q 813 1766 1038 1828 
Q 1203 1872 1538 1913 
Q 2219 1994 2541 2106 
Q 2544 2222 2544 2253 
Q 2544 2597 2384 2738 
Q 2169 2928 1744 2928 
Q 1347 2928 1158 2789 
Q 969 2650 878 2297 
L 328 2372 
Q 403 2725 575 2942 
Q 747 3159 1072 3276 
Q 1397 3394 1825 3394 
Q 2250 3394 2515 3294 
Q 2781 3194 2906 3042 
Q 3031 2891 3081 2659 
Q 3109 2516 3109 2141 
L 3109 1391 
Q 3109 606 3145 398 
Q 3181 191 3288 0 
L 2700 0 
Q 2613 175 2588 409 
z
M 2541 1666 
Q 2234 1541 1622 1453 
Q 1275 1403 1131 1340 
Q 988 1278 909 1158 
Q 831 1038 831 891 
Q 831 666 1001 516 
Q 1172 366 1500 366 
Q 1825 366 2078 508 
Q 2331 650 2450 897 
Q 2541 1088 2541 1459 
L 2541 1666 
z
" transform="scale(0.015625)"/>
      <path id="ArialMT-74" d="M 1650 503 
L 1731 6 
Q 1494 -44 1306 -44 
Q 1000 -44 831 53 
Q 663 150 594 308 
Q 525 466 525 972 
L 525 2881 
L 113 2881 
L 113 3319 
L 525 3319 
L 525 4141 
L 1084 4478 
L 1084 3319 
L 1650 3319 
L 1650 2881 
L 1084 2881 
L 1084 941 
Q 1084 700 1114 631 
Q 1144 563 1211 522 
Q 1278 481 1403 481 
Q 1497 481 1650 503 
z
" transform="scale(0.015625)"/>
      <path id="ArialMT-67" d="M 319 -275 
L 866 -356 
Q 900 -609 1056 -725 
Q 1266 -881 1628 -881 
Q 2019 -881 2231 -725 
Q 2444 -569 2519 -288 
Q 2563 -116 2559 434 
Q 2191 0 1641 0 
Q 956 0 581 494 
Q 206 988 206 1678 
Q 206 2153 378 2554 
Q 550 2956 876 3175 
Q 1203 3394 1644 3394 
Q 2231 3394 2613 2919 
L 2613 3319 
L 3131 3319 
L 3131 450 
Q 3131 -325 2973 -648 
Q 2816 -972 2473 -1159 
Q 2131 -1347 1631 -1347 
Q 1038 -1347 672 -1080 
Q 306 -813 319 -275 
z
M 784 1719 
Q 784 1066 1043 766 
Q 1303 466 1694 466 
Q 2081 466 2343 764 
Q 2606 1063 2606 1700 
Q 2606 2309 2336 2618 
Q 2066 2928 1684 2928 
Q 1309 2928 1046 2623 
Q 784 2319 784 1719 
z
" transform="scale(0.015625)"/>
      <path id="ArialMT-73" d="M 197 991 
L 753 1078 
Q 800 744 1014 566 
Q 1228 388 1613 388 
Q 2000 388 2187 545 
Q 2375 703 2375 916 
Q 2375 1106 2209 1216 
Q 2094 1291 1634 1406 
Q 1016 1563 777 1677 
Q 538 1791 414 1992 
Q 291 2194 291 2438 
Q 291 2659 392 2848 
Q 494 3038 669 3163 
Q 800 3259 1026 3326 
Q 1253 3394 1513 3394 
Q 1903 3394 2198 3281 
Q 2494 3169 2634 2976 
Q 2775 2784 2828 2463 
L 2278 2388 
Q 2241 2644 2061 2787 
Q 1881 2931 1553 2931 
Q 1166 2931 1000 2803 
Q 834 2675 834 2503 
Q 834 2394 903 2306 
Q 972 2216 1119 2156 
Q 1203 2125 1616 2013 
Q 2213 1853 2448 1751 
Q 2684 1650 2818 1456 
Q 2953 1263 2953 975 
Q 2953 694 2789 445 
Q 2625 197 2315 61 
Q 2006 -75 1616 -75 
Q 969 -75 630 194 
Q 291 463 197 991 
z
" transform="scale(0.015625)"/>
     </defs>
     <use xlink:href="#ArialMT-45"/>
     <use xlink:href="#ArialMT-49" transform="translate(66.699219 0)"/>
     <use xlink:href="#ArialMT-43" transform="translate(94.482422 0)"/>
     <use xlink:href="#ArialMT-20" transform="translate(166.699219 0)"/>
     <use xlink:href="#ArialMT-43" transform="translate(194.482422 0)"/>
     <use xlink:href="#ArialMT-68" transform="translate(266.699219 0)"/>
     <use xlink:href="#ArialMT-72" transform="translate(322.314453 0)"/>
     <use xlink:href="#ArialMT-6f" transform="translate(355.615234 0)"/>
     <use xlink:href="#ArialMT-6d" transform="translate(411.230469 0)"/>
     <use xlink:href="#ArialMT-61" transform="translate(494.53125 0)"/>
     <use xlink:href="#ArialMT-74" transform="translate(550.146484 0)"/>
     <use xlink:href="#ArialMT-6f" transform="translate(577.929688 0)"/>
     <use xlink:href="#ArialMT-67" transform="translate(633.544922 0)"/>
     <use xlink:href="#ArialMT-72" transform="translate(689.160156 0)"/>
     <use xlink:href="#ArialMT-61" transform="translate(722.460938 0)"/>
     <use xlink:href="#ArialMT-6d" transform="translate(778.076172 0)"/>
     <use xlink:href="#ArialMT-73" transform="translate(861.376953 0)"/>
    </g>
   </g>
   <g id="legend_1">
    <g id="patch_7">
     <path d="M 1047.807625 63.386875 
L 1199.487625 63.386875 
Q 1202.687625 63.386875 1202.687625 60.186875 
L 1202.687625 38.959375 
Q 1202.687625 35.759375 1199.487625 35.759375 
L 1047.807625 35.759375 
Q 1044.607625 35.759375 1044.607625 38.959375 
L 1044.607625 60.186875 
Q 1044.607625 63.386875 1047.807625 63.386875 
z
" style="fill: #ffffff; opacity: 0.8; stroke: #cccccc; stroke-linejoin: miter"/>
    </g>
    <g id="line2d_58">
     <path d="M 1051.007625 48.206875 
L 1067.007625 48.206875 
L 1083.007625 48.206875 
" style="fill: none; stroke: #1f77b4; stroke-width: 3; stroke-linecap: square"/>
    </g>
    <g id="text_38">
     <!-- Barentz_MAG -->
     <g transform="translate(1095.807625 53.806875) scale(0.16 -0.16)">
      <defs>
       <path id="ArialMT-42" d="M 469 0 
L 469 4581 
L 2188 4581 
Q 2713 4581 3030 4442 
Q 3347 4303 3526 4014 
Q 3706 3725 3706 3409 
Q 3706 3116 3547 2856 
Q 3388 2597 3066 2438 
Q 3481 2316 3704 2022 
Q 3928 1728 3928 1328 
Q 3928 1006 3792 729 
Q 3656 453 3456 303 
Q 3256 153 2954 76 
Q 2653 0 2216 0 
L 469 0 
z
M 1075 2656 
L 2066 2656 
Q 2469 2656 2644 2709 
Q 2875 2778 2992 2937 
Q 3109 3097 3109 3338 
Q 3109 3566 3000 3739 
Q 2891 3913 2687 3977 
Q 2484 4041 1991 4041 
L 1075 4041 
L 1075 2656 
z
M 1075 541 
L 2216 541 
Q 2509 541 2628 563 
Q 2838 600 2978 687 
Q 3119 775 3209 942 
Q 3300 1109 3300 1328 
Q 3300 1584 3169 1773 
Q 3038 1963 2805 2039 
Q 2572 2116 2134 2116 
L 1075 2116 
L 1075 541 
z
" transform="scale(0.015625)"/>
       <path id="ArialMT-65" d="M 2694 1069 
L 3275 997 
Q 3138 488 2766 206 
Q 2394 -75 1816 -75 
Q 1088 -75 661 373 
Q 234 822 234 1631 
Q 234 2469 665 2931 
Q 1097 3394 1784 3394 
Q 2450 3394 2872 2941 
Q 3294 2488 3294 1666 
Q 3294 1616 3291 1516 
L 816 1516 
Q 847 969 1125 678 
Q 1403 388 1819 388 
Q 2128 388 2347 550 
Q 2566 713 2694 1069 
z
M 847 1978 
L 2700 1978 
Q 2663 2397 2488 2606 
Q 2219 2931 1791 2931 
Q 1403 2931 1139 2672 
Q 875 2413 847 1978 
z
" transform="scale(0.015625)"/>
       <path id="ArialMT-6e" d="M 422 0 
L 422 3319 
L 928 3319 
L 928 2847 
Q 1294 3394 1984 3394 
Q 2284 3394 2536 3286 
Q 2788 3178 2913 3003 
Q 3038 2828 3088 2588 
Q 3119 2431 3119 2041 
L 3119 0 
L 2556 0 
L 2556 2019 
Q 2556 2363 2490 2533 
Q 2425 2703 2258 2804 
Q 2091 2906 1866 2906 
Q 1506 2906 1245 2678 
Q 984 2450 984 1813 
L 984 0 
L 422 0 
z
" transform="scale(0.015625)"/>
       <path id="ArialMT-7a" d="M 125 0 
L 125 456 
L 2238 2881 
Q 1878 2863 1603 2863 
L 250 2863 
L 250 3319 
L 2963 3319 
L 2963 2947 
L 1166 841 
L 819 456 
Q 1197 484 1528 484 
L 3063 484 
L 3063 0 
L 125 0 
z
" transform="scale(0.015625)"/>
       <path id="ArialMT-5f" d="M -97 -1272 
L -97 -866 
L 3631 -866 
L 3631 -1272 
L -97 -1272 
z
" transform="scale(0.015625)"/>
       <path id="ArialMT-4d" d="M 475 0 
L 475 4581 
L 1388 4581 
L 2472 1338 
Q 2622 884 2691 659 
Q 2769 909 2934 1394 
L 4031 4581 
L 4847 4581 
L 4847 0 
L 4263 0 
L 4263 3834 
L 2931 0 
L 2384 0 
L 1059 3900 
L 1059 0 
L 475 0 
z
" transform="scale(0.015625)"/>
       <path id="ArialMT-41" d="M -9 0 
L 1750 4581 
L 2403 4581 
L 4278 0 
L 3588 0 
L 3053 1388 
L 1138 1388 
L 634 0 
L -9 0 
z
M 1313 1881 
L 2866 1881 
L 2388 3150 
Q 2169 3728 2063 4100 
Q 1975 3659 1816 3225 
L 1313 1881 
z
" transform="scale(0.015625)"/>
       <path id="ArialMT-47" d="M 2638 1797 
L 2638 2334 
L 4578 2338 
L 4578 638 
Q 4131 281 3656 101 
Q 3181 -78 2681 -78 
Q 2006 -78 1454 211 
Q 903 500 622 1047 
Q 341 1594 341 2269 
Q 341 2938 620 3517 
Q 900 4097 1425 4378 
Q 1950 4659 2634 4659 
Q 3131 4659 3532 4498 
Q 3934 4338 4162 4050 
Q 4391 3763 4509 3300 
L 3963 3150 
Q 3859 3500 3706 3700 
Q 3553 3900 3268 4020 
Q 2984 4141 2638 4141 
Q 2222 4141 1919 4014 
Q 1616 3888 1430 3681 
Q 1244 3475 1141 3228 
Q 966 2803 966 2306 
Q 966 1694 1177 1281 
Q 1388 869 1791 669 
Q 2194 469 2647 469 
Q 3041 469 3416 620 
Q 3791 772 3984 944 
L 3984 1797 
L 2638 1797 
z
" transform="scale(0.015625)"/>
      </defs>
      <use xlink:href="#ArialMT-42"/>
      <use xlink:href="#ArialMT-61" transform="translate(66.699219 0)"/>
      <use xlink:href="#ArialMT-72" transform="translate(122.314453 0)"/>
      <use xlink:href="#ArialMT-65" transform="translate(155.615234 0)"/>
      <use xlink:href="#ArialMT-6e" transform="translate(211.230469 0)"/>
      <use xlink:href="#ArialMT-74" transform="translate(266.845703 0)"/>
      <use xlink:href="#ArialMT-7a" transform="translate(294.628906 0)"/>
      <use xlink:href="#ArialMT-5f" transform="translate(344.628906 0)"/>
      <use xlink:href="#ArialMT-4d" transform="translate(400.244141 0)"/>
      <use xlink:href="#ArialMT-41" transform="translate(483.544922 0)"/>
      <use xlink:href="#ArialMT-47" transform="translate(550.244141 0)"/>
     </g>
    </g>
   </g>
   <g id="line2d_59">
    <path d="M 63.038183 527.655358 
L 65.888627 527.599005 
L 66.52206 527.598691 
L 68.10564 527.608571 
L 73.173096 527.379694 
L 73.806528 527.471305 
L 75.073392 527.587268 
L 76.023541 527.525624 
L 79.190701 527.623586 
L 81.090997 527.597251 
L 89.008898 527.609814 
L 90.275762 527.621801 
L 92.80949 527.614509 
L 94.076354 527.616688 
L 95.026502 527.60884 
L 97.560231 527.626722 
L 99.143811 527.585282 
L 100.093959 527.612283 
L 102.944403 527.594936 
L 104.527983 527.630279 
L 106.111564 527.606911 
L 107.695144 527.606938 
L 108.962008 527.597464 
L 109.912156 527.645803 
L 112.129168 527.597582 
L 120.047069 527.608555 
L 162.170301 527.613837 
L 162.803733 527.583338 
L 163.753882 527.607134 
L 164.387314 527.580281 
L 167.87119 527.652763 
L 168.821338 527.586328 
L 169.771486 527.628143 
L 173.572079 527.611338 
L 175.789091 527.631705 
L 178.956251 527.363828 
L 179.589683 527.391883 
L 182.756843 527.402931 
L 183.706992 527.43637 
L 184.340424 527.37881 
L 184.973856 527.465955 
L 190.674744 527.522491 
L 190.99146 527.601408 
L 192.258324 527.50658 
L 194.158621 527.600603 
L 194.792053 527.579116 
L 209.994422 527.585911 
L 210.627854 527.527591 
L 214.428447 527.635409 
L 215.695311 527.578573 
L 217.595607 527.586865 
L 217.912323 527.480711 
L 218.229039 527.206883 
L 218.545755 526.61386 
L 218.862471 525.230665 
L 219.179187 522.782169 
L 219.495903 518.648105 
L 220.762767 495.393363 
L 221.079483 495.620348 
L 221.396199 497.517794 
L 222.97978 522.352919 
L 223.296496 524.440942 
L 223.929928 526.433619 
L 224.56336 527.018507 
L 225.196792 527.281301 
L 225.830224 527.273663 
L 226.463656 527.43832 
L 227.097088 527.435978 
L 230.264248 527.594021 
L 230.580964 527.516448 
L 230.89768 527.580757 
L 231.847829 527.504943 
L 233.114693 527.587817 
L 234.381557 527.553397 
L 235.965137 527.586377 
L 237.232001 527.576228 
L 238.498865 527.567044 
L 262.252568 527.611712 
L 262.886 527.558472 
L 263.519432 527.617782 
L 263.836148 527.500991 
L 264.152864 527.580423 
L 264.786296 527.557481 
L 267.003308 527.439926 
L 267.63674 527.463848 
L 268.903604 527.478032 
L 269.537036 527.505465 
L 271.120617 527.559457 
L 278.088369 527.55283 
L 278.721801 527.609595 
L 283.789258 527.490832 
L 284.739406 527.600075 
L 285.056122 527.518148 
L 285.689554 527.60172 
L 289.490146 527.622739 
L 290.123578 527.614842 
L 291.073727 527.632726 
L 292.023875 527.634102 
L 296.457899 527.633718 
L 297.091331 527.623241 
L 299.308343 527.633724 
L 303.425652 527.673135 
L 304.692516 527.63366 
L 307.54296 527.609742 
L 309.12654 527.258413 
L 309.443256 527.00997 
L 309.759972 526.58937 
L 310.393405 525.21886 
L 310.710121 524.212727 
L 311.343553 523.760347 
L 311.660269 523.989468 
L 312.927133 526.421183 
L 313.560565 527.213179 
L 313.877281 527.396592 
L 316.727725 527.608164 
L 336.047403 527.632307 
L 336.364119 527.580776 
L 336.997551 527.645769 
L 339.214564 527.663002 
L 360.434538 527.652359 
L 362.018118 527.608907 
L 363.601698 527.593743 
L 366.135426 527.615509 
L 366.768858 527.611381 
L 376.587055 527.551791 
L 376.903771 527.4349 
L 377.853919 527.378254 
L 378.487352 527.328972 
L 381.654512 527.58522 
L 385.77182 527.654429 
L 386.721968 527.60176 
L 387.672116 527.663828 
L 388.622265 527.633851 
L 389.255697 527.649958 
L 390.839277 527.636089 
L 394.006437 527.644809 
L 395.273301 527.62777 
L 396.856881 527.657163 
L 398.440462 527.642953 
L 399.707326 527.667081 
L 400.340758 527.648236 
L 400.97419 527.678388 
L 401.607622 527.595662 
L 402.241054 527.647653 
L 404.774782 527.653989 
L 406.358362 527.636218 
L 407.625227 527.658643 
L 409.525523 527.639838 
L 410.158955 527.615637 
L 412.059251 527.6552 
L 415.543127 527.497221 
L 415.859843 527.247612 
L 416.176559 526.834278 
L 416.493275 525.990178 
L 416.809991 524.338345 
L 417.126708 521.263742 
L 417.76014 509.626324 
L 418.393572 486.874014 
L 419.027004 452.107873 
L 419.34372 426.952166 
L 420.9273 244.785624 
L 421.244016 234.759699 
L 421.560732 248.322643 
L 421.877448 279.090388 
L 422.51088 416.719954 
L 423.144312 496.282092 
L 423.461028 511.66448 
L 423.777744 519.5198 
L 424.09446 522.985862 
L 424.411176 524.782407 
L 424.727892 525.720964 
L 425.044608 526.209967 
L 425.361324 526.421188 
L 425.67804 526.485211 
L 425.994756 526.690716 
L 426.628188 526.848637 
L 427.578337 527.126653 
L 427.895053 527.046714 
L 428.845201 527.205835 
L 430.112065 527.367628 
L 433.595941 527.465003 
L 434.229373 527.493036 
L 437.396534 527.505439 
L 463.683964 527.591589 
L 466.217693 527.588803 
L 468.751421 527.659685 
L 469.701569 527.477739 
L 471.285149 527.378637 
L 471.918581 527.305754 
L 472.552013 527.233526 
L 473.818877 527.239917 
L 476.03589 527.585364 
L 477.61947 527.51473 
L 478.569618 527.342106 
L 479.519766 527.029682 
L 480.469914 526.238315 
L 480.78663 525.226989 
L 481.103346 523.403913 
L 481.420062 520.515013 
L 481.736778 515.405439 
L 482.053494 507.213836 
L 482.686926 481.062251 
L 483.003642 465.982564 
L 483.637074 397.930875 
L 484.587222 265.089073 
L 484.903938 214.323598 
L 485.220654 130.554572 
L 485.537371 80.224528 
L 485.854087 56.684056 
L 486.170803 51.569842 
L 486.487519 94.011181 
L 487.437667 424.721431 
L 487.754383 477.622427 
L 488.071099 504.373344 
L 488.387815 516.506299 
L 488.704531 521.769834 
L 489.021247 523.933745 
L 489.337963 525.027319 
L 489.971395 525.795708 
L 490.604827 526.000747 
L 492.821839 526.841535 
L 493.138555 526.851659 
L 493.455271 527.008061 
L 493.771987 527.003229 
L 494.405419 527.132648 
L 495.038851 527.127049 
L 495.672284 527.044909 
L 495.989 526.940746 
L 496.622432 526.186302 
L 497.889296 523.862686 
L 498.206012 523.404742 
L 498.839444 523.772833 
L 499.15616 524.308653 
L 499.472876 525.095622 
L 500.73974 526.792055 
L 501.056456 527.125755 
L 501.689888 527.308145 
L 502.640036 527.407501 
L 502.956752 527.445953 
L 503.273468 527.34221 
L 503.9069 527.403041 
L 508.024209 527.535034 
L 509.291073 527.488911 
L 510.557937 527.519893 
L 511.191369 527.484812 
L 512.774949 527.540448 
L 514.675246 527.55152 
L 515.308678 527.542999 
L 521.959714 527.5853 
L 523.543294 527.606193 
L 524.493443 527.602703 
L 525.126875 527.588507 
L 526.077023 527.591728 
L 529.560899 527.390032 
L 530.511047 527.173276 
L 532.094627 527.223661 
L 532.728059 527.464331 
L 534.31164 527.588119 
L 535.261788 527.611097 
L 537.795516 527.614644 
L 549.830725 527.569807 
L 550.464157 527.325447 
L 550.780873 527.089454 
L 551.414305 526.255171 
L 552.997885 522.422261 
L 553.314601 522.662891 
L 553.631318 523.085902 
L 554.26475 524.426913 
L 554.581466 525.446478 
L 555.214898 526.614027 
L 555.84833 527.304917 
L 556.481762 527.528335 
L 565.349811 527.595701 
L 568.200255 527.599471 
L 569.150403 527.621441 
L 569.467119 527.541076 
L 570.733983 527.632434 
L 571.684131 527.604866 
L 575.168008 527.625996 
L 576.434872 527.591652 
L 577.068304 527.637303 
L 578.018452 527.634911 
L 579.285316 527.673389 
L 579.602032 527.582314 
L 580.235464 527.622053 
L 582.13576 527.594857 
L 582.452476 527.485938 
L 583.085909 527.47441 
L 584.352773 527.247036 
L 586.253069 527.480627 
L 587.203217 527.416655 
L 587.836649 527.208244 
L 588.786797 526.87387 
L 590.687093 527.406819 
L 591.320525 527.529469 
L 592.270673 527.594185 
L 593.537538 527.628129 
L 594.17097 527.540084 
L 596.704698 527.465314 
L 597.654846 527.553665 
L 599.238426 527.355602 
L 599.871858 527.250754 
L 600.822006 527.103426 
L 601.138722 527.293744 
L 603.672451 527.609525 
L 604.622599 527.569386 
L 605.572747 527.624161 
L 607.789759 527.605124 
L 608.423191 527.640899 
L 615.074228 527.645326 
L 615.70766 527.621956 
L 617.29124 527.588137 
L 617.924672 527.637928 
L 618.87482 527.647158 
L 636.294202 527.483461 
L 637.877782 526.679304 
L 638.194498 526.679384 
L 638.511214 526.524265 
L 639.461362 526.813222 
L 640.094794 526.99824 
L 640.41151 527.237131 
L 643.261955 527.596625 
L 644.212103 527.644597 
L 644.845535 527.601955 
L 645.795683 527.619674 
L 648.962843 527.473703 
L 649.596275 527.512434 
L 652.763436 527.625743 
L 654.663732 527.627549 
L 655.61388 527.615544 
L 659.097756 527.632764 
L 660.047904 527.558816 
L 660.681336 527.580179 
L 662.581633 527.553474 
L 663.215065 527.594479 
L 664.798645 527.65653 
L 673.033262 527.622687 
L 673.98341 527.614477 
L 684.435039 527.579224 
L 685.068471 527.371514 
L 685.385187 527.036228 
L 685.701903 526.405519 
L 686.335335 522.68676 
L 686.968767 513.211865 
L 687.918915 487.584392 
L 688.552347 466.864507 
L 688.869063 460.669499 
L 689.185779 457.449577 
L 689.502495 461.929547 
L 690.135928 485.154593 
L 690.76936 509.594673 
L 691.086076 516.795275 
L 691.402792 521.337435 
L 692.036224 525.067093 
L 692.35294 525.948409 
L 692.986372 526.647656 
L 693.619804 526.943789 
L 694.253236 526.841617 
L 694.569952 526.647531 
L 694.886668 526.260064 
L 695.5201 524.499689 
L 696.470248 520.44748 
L 696.786964 520.41078 
L 697.10368 520.187798 
L 697.420396 520.588031 
L 699.003976 525.61889 
L 699.320692 526.249505 
L 699.954125 527.000656 
L 701.537705 527.431042 
L 702.487853 527.465669 
L 703.121285 527.52566 
L 707.238593 527.567319 
L 707.872025 527.562306 
L 708.822173 527.595358 
L 710.405754 527.534795 
L 716.740074 527.605479 
L 718.323654 527.609219 
L 719.273803 527.541355 
L 719.590519 527.653429 
L 720.540667 527.600668 
L 721.490815 527.584299 
L 725.291407 527.612068 
L 726.241555 527.573042 
L 727.191703 527.641423 
L 729.725432 527.599627 
L 731.942444 527.601443 
L 733.526024 527.530691 
L 746.511381 527.596362 
L 748.728394 527.416213 
L 750.311974 527.586404 
L 751.262122 527.583387 
L 753.479134 527.55895 
L 755.696146 527.604419 
L 757.913158 527.468975 
L 759.180023 527.558802 
L 760.763603 527.624526 
L 762.030467 527.603363 
L 763.297331 527.589931 
L 763.930763 527.278586 
L 764.247479 526.829194 
L 764.564195 525.961166 
L 764.880911 524.408758 
L 765.197627 521.48011 
L 765.831059 511.116125 
L 766.464491 499.700781 
L 766.781207 495.33664 
L 767.097923 495.911768 
L 767.414639 497.605343 
L 768.048072 507.481617 
L 768.681504 518.193568 
L 768.99822 521.719398 
L 769.314936 523.88212 
L 769.631652 525.220372 
L 770.265084 526.492771 
L 770.5818 526.667487 
L 770.898516 527.03418 
L 771.531948 527.22666 
L 772.798812 527.355393 
L 773.115528 527.473291 
L 776.282688 527.486217 
L 776.599404 527.569997 
L 777.232836 527.520878 
L 780.399997 527.605142 
L 781.350145 527.587498 
L 783.883873 527.592736 
L 784.834021 527.547068 
L 785.784169 527.601042 
L 787.367749 527.553874 
L 790.851626 527.615344 
L 791.485058 527.594445 
L 792.11849 527.580052 
L 796.86923 527.570269 
L 797.502663 527.512103 
L 800.353107 527.615915 
L 813.971896 527.553159 
L 814.605328 527.614062 
L 818.089205 527.379398 
L 818.722637 526.650552 
L 820.306217 521.916772 
L 820.622933 521.472434 
L 820.939649 522.13576 
L 821.573081 524.210766 
L 822.206513 525.884597 
L 822.523229 526.475372 
L 823.156661 527.132369 
L 824.423525 527.486982 
L 825.056957 527.485153 
L 825.690389 527.548681 
L 826.007105 527.49247 
L 826.323821 527.596503 
L 827.27397 527.552413 
L 829.174266 527.602297 
L 831.074562 527.568876 
L 835.508586 527.576277 
L 838.042315 527.59272 
L 838.992463 527.627384 
L 856.095129 527.571046 
L 857.361993 527.604708 
L 858.628857 527.602269 
L 859.262289 527.581794 
L 862.746165 527.60397 
L 865.913326 527.593315 
L 886.183152 527.573867 
L 887.1333 527.62277 
L 887.766732 527.588736 
L 888.71688 527.547327 
L 889.033596 527.633106 
L 889.667028 527.60451 
L 890.617176 527.607512 
L 906.452978 527.42916 
L 907.719842 527.373565 
L 909.303422 527.583254 
L 910.25357 527.569898 
L 927.672952 527.589123 
L 927.989668 527.545404 
L 928.306384 527.638864 
L 928.939816 527.551286 
L 930.840112 527.612346 
L 932.106976 527.594451 
L 933.690556 527.575376 
L 987.848998 527.475632 
L 988.48243 527.301206 
L 989.115862 526.611552 
L 990.06601 524.93209 
L 990.382726 524.612916 
L 990.699442 524.497844 
L 991.016158 524.533511 
L 992.283023 526.547794 
L 992.916455 527.11037 
L 993.866603 527.405999 
L 1005.26838 527.540297 
L 1006.218528 527.5195 
L 1007.802108 527.490669 
L 1010.01912 527.553922 
L 1010.335836 527.595955 
L 1010.969268 527.46327 
L 1012.236133 527.529809 
L 1012.869565 527.515917 
L 1021.737614 527.445048 
L 1022.05433 527.346486 
L 1022.687762 526.876663 
L 1023.321194 526.179578 
L 1023.63791 525.94843 
L 1024.271342 525.844449 
L 1024.588058 525.966741 
L 1024.904774 526.425569 
L 1025.22149 526.565533 
L 1025.538206 526.958906 
L 1026.488354 527.37791 
L 1027.755218 527.420248 
L 1029.022082 527.51267 
L 1029.338798 527.451126 
L 1029.97223 527.510101 
L 1038.206847 527.456193 
L 1038.523563 527.364905 
L 1038.840279 527.437055 
L 1039.473711 527.452758 
L 1040.740575 527.465735 
L 1043.59102 527.514992 
L 1043.907736 527.571352 
L 1044.224452 527.46211 
L 1045.1746 527.493396 
L 1046.75818 527.501005 
L 1047.708328 527.524794 
L 1048.34176 527.476659 
L 1050.242056 527.519034 
L 1051.192205 527.482809 
L 1063.54413 527.50096 
L 1064.810994 527.287492 
L 1065.444426 527.188369 
L 1065.761142 527.054669 
L 1066.71129 527.13471 
L 1067.978154 527.408124 
L 1068.29487 527.357701 
L 1068.928302 527.50408 
L 1069.87845 527.418732 
L 1070.511883 527.511426 
L 1072.095463 527.440884 
L 1072.412179 527.539305 
L 1072.728895 527.402687 
L 1073.045611 527.50219 
L 1073.995759 527.436104 
L 1074.945907 527.501724 
L 1075.579339 527.502927 
L 1078.429783 527.506443 
L 1079.379931 527.435154 
L 1080.013364 527.474631 
L 1084.764104 527.456729 
L 1085.397536 527.479498 
L 1090.464993 527.505871 
L 1091.098425 527.434938 
L 1092.682005 527.49067 
L 1096.799313 527.350138 
L 1097.116029 527.329556 
L 1097.749461 526.958291 
L 1098.066177 526.397239 
L 1098.699609 524.313497 
L 1099.333041 521.068262 
L 1099.649758 520.518633 
L 1099.966474 520.508675 
L 1101.86677 526.203509 
L 1102.500202 526.832038 
L 1103.767066 527.210837 
L 1105.03393 527.271737 
L 1105.350646 527.365596 
L 1105.667362 527.267043 
L 1105.984078 527.388562 
L 1107.250942 527.321339 
L 1107.567658 527.440255 
L 1107.884374 527.330288 
L 1113.901979 527.464758 
L 1115.168843 527.388979 
L 1115.802275 527.478306 
L 1116.752423 527.32109 
L 1118.969436 527.462717 
L 1120.553016 527.375661 
L 1121.186448 527.408031 
L 1124.353608 527.427067 
L 1125.937188 527.413497 
L 1126.887336 527.428674 
L 1129.421065 527.382176 
L 1130.054497 527.456326 
L 1131.638077 527.453338 
L 1132.904941 527.382321 
L 1133.855089 527.430724 
L 1151.591187 527.324452 
L 1153.491483 527.118497 
L 1157.292075 527.366396 
L 1158.55894 527.385568 
L 1159.192372 527.387465 
L 1159.825804 527.350235 
L 1165.526692 527.415859 
L 1165.843408 527.328616 
L 1166.793556 527.433947 
L 1179.145482 527.372528 
L 1179.462198 527.447152 
L 1179.778914 527.30709 
L 1180.412346 527.32025 
L 1183.579506 527.326713 
L 1184.84637 527.340541 
L 1185.163086 527.416483 
L 1185.796518 527.310405 
L 1187.696815 527.365644 
L 1190.230543 527.360808 
L 1190.547259 527.39503 
L 1190.863975 527.27495 
L 1191.814123 527.396353 
L 1196.248147 527.360559 
L 1196.564863 527.432927 
L 1197.198296 527.348108 
L 1198.148444 527.40828 
L 1199.732024 527.327204 
L 1200.04874 527.396423 
L 1200.998888 527.276124 
L 1201.315604 527.370257 
L 1202.582468 527.315312 
L 1202.899184 527.391241 
L 1204.166048 527.30864 
L 1205.116196 527.429017 
L 1205.432912 527.31307 
L 1207.649925 527.324111 
L 1208.283357 527.327919 
L 1210.817085 527.310199 
L 1210.817085 527.310199 
" clip-path="url(#p192b89c53f)" style="fill: none; stroke: #1f77b4; stroke-width: 3; stroke-linecap: square"/>
   </g>
  </g>
 </g>
 <defs>
  <clipPath id="p192b89c53f">
   <rect x="63.295625" y="27.759375" width="1147.392" height="509.544"/>
  </clipPath>
 </defs>
</svg>
